<?xml version="1.0" standalone="no"?>
<svg version="1.0" xmlns="http://www.w3.org/2000/svg"
 width="512.000000pt" height="512.000000pt" viewBox="0 0 512.000000 512.000000"
 preserveAspectRatio="xMidYMid meet">

<g transform="translate(0.000000,512.000000) scale(0.100000,-0.100000)"
fill="#fff" stroke="none">
<path d="M1030 5109 c-121 -24 -244 -120 -301 -234 -36 -75 -49 -151 -49 -312
l0 -122 -316 -3 -316 -3 -24 -28 -24 -28 0 -1469 c0 -1095 3 -1476 12 -1495 7
-15 145 -125 340 -271 270 -203 328 -251 328 -270 l0 -24 -309 0 c-170 0 -317
-3 -326 -6 -38 -15 -45 -55 -45 -252 0 -104 5 -213 10 -242 32 -170 170 -308
339 -340 74 -14 3668 -14 3742 0 147 28 274 140 327 288 15 43 17 207 19 2010
l3 1962 309 0 c170 0 317 3 326 6 38 15 45 55 45 252 0 104 -5 214 -10 243
-32 169 -170 307 -340 339 -66 13 -3675 12 -3740 -1z m3301 -195 c-12 -20 -30
-62 -41 -95 -19 -54 -20 -86 -20 -430 0 -321 -2 -370 -15 -366 -8 4 -131 94
-275 202 -143 108 -272 200 -286 205 -16 6 -554 10 -1436 10 l-1410 0 4 153
c3 128 7 159 25 197 33 71 97 128 173 151 14 4 762 8 1663 8 l1639 1 -21 -36z
m452 16 c66 -25 121 -80 147 -148 17 -43 20 -77 20 -197 l0 -145 -255 0 -255
0 0 148 c0 171 12 220 66 276 79 81 175 104 277 66z m-1203 -2025 l0 -1365
-1705 0 -1705 0 0 1365 0 1365 1705 0 1705 0 0 -1365z m440 1078 l250 -188 0
-1343 0 -1343 -42 31 c-24 16 -140 103 -258 193 l-215 162 -3 1338 c-1 894 1
1337 8 1337 6 0 123 -84 260 -187z m-3340 -2738 c0 -69 -2 -125 -5 -125 -8 0
-325 239 -325 245 0 3 74 5 165 5 l165 0 0 -125z m3271 -112 l318 -238 1 -231
c0 -127 -4 -254 -10 -282 -27 -144 -164 -234 -305 -203 -75 17 -133 63 -170
136 l-30 59 -3 217 c-4 203 -5 219 -24 236 -19 17 -86 18 -1447 23 l-1426 5
-3 245 c-1 134 0 250 3 257 3 10 280 13 1391 13 l1387 0 318 -237z m-371 -570
c0 -167 13 -245 54 -325 l34 -68 -1639 0 c-1612 0 -1639 0 -1692 20 -66 25
-121 80 -147 148 -17 43 -20 77 -20 197 l0 145 1705 0 1705 0 0 -117z"/>
<path d="M1845 4096 c-16 -8 -306 -290 -643 -628 -593 -594 -612 -615 -612
-651 0 -27 7 -45 25 -62 24 -25 26 -25 214 -25 l190 0 3 -484 3 -484 24 -26
24 -26 804 0 804 0 24 26 25 27 0 483 0 484 191 0 191 0 29 29 c45 46 35 93
-35 160 l-36 35 0 288 0 289 -25 24 c-24 25 -25 25 -224 25 -110 0 -207 -3
-216 -6 -20 -8 -45 -55 -45 -86 0 -17 -74 52 -318 295 -175 174 -323 317 -329
317 -6 0 -17 2 -25 5 -7 2 -26 -2 -43 -9z m762 -915 c28 -14 64 -14 84 2 30
23 39 56 39 141 l0 86 85 0 85 0 0 -255 0 -255 -142 0 c-149 -1 -164 -4 -186
-47 -9 -16 -12 -155 -12 -497 l0 -476 -170 0 -170 0 0 223 c0 257 -9 303 -67
368 -64 71 -99 83 -252 87 -82 3 -149 0 -175 -8 -65 -18 -130 -71 -160 -131
-26 -53 -26 -54 -26 -296 l0 -243 -175 0 -175 0 0 485 0 486 -25 24 c-23 24
-29 25 -157 25 l-133 0 500 500 500 500 355 -354 c195 -195 365 -359 377 -365z
m-585 -819 c22 -22 23 -29 26 -252 l3 -230 -170 0 -171 0 0 228 c1 290 -3 284
177 280 102 -3 115 -5 135 -26z"/>
<path d="M1652 3390 c-32 -30 -34 -47 -30 -253 4 -248 -13 -231 235 -235 206
-4 223 -2 253 30 19 20 20 35 20 225 0 273 20 253 -253 253 -190 0 -205 -1
-225 -20z m308 -235 l0 -85 -85 0 -85 0 0 85 0 85 85 0 85 0 0 -85z"/>
<path d="M2653 4088 c-4 -7 -8 -104 -8 -215 l-1 -203 82 0 82 0 6 63 c3 34 5
131 4 215 l-2 152 -77 0 c-51 0 -81 -4 -86 -12z"/>
<path d="M2901 4029 c-9 -54 -9 -91 0 -149 8 -55 8 -92 0 -135 -6 -32 -11 -62
-11 -67 0 -4 38 -8 85 -8 69 0 87 3 92 16 7 19 10 170 4 239 -3 28 -1 78 3
113 l9 62 -85 0 -85 0 -12 -71z"/>
</g>
</svg>
