<?xml version="1.0" standalone="no"?>
<svg version="1.0" xmlns="http://www.w3.org/2000/svg"
 width="60.000000pt" height="60.000000pt" viewBox="0 0 512.000000 512.000000"
 preserveAspectRatio="xMidYMid meet">

<g transform="translate(0.000000,512.000000) scale(0.100000,-0.100000)"
fill="#fff" stroke="none">
<path d="M1885 5114 c-160 -19 -228 -30 -338 -56 -145 -35 -177 -54 -177 -102
0 -77 47 -93 169 -56 180 53 458 79 656 61 258 -24 437 -74 670 -186 208 -101
366 -216 531 -387 281 -291 454 -649 515 -1063 15 -105 15 -387 -1 -495 -77
-527 -349 -978 -775 -1287 -183 -132 -415 -238 -650 -297 -260 -65 -630 -65
-890 0 -562 141 -1015 511 -1260 1029 -122 257 -176 500 -178 795 0 170 11
283 44 430 117 518 458 971 924 1230 84 46 105 67 105 105 0 37 -35 75 -70 75
-44 0 -249 -124 -395 -239 -38 -30 -118 -102 -176 -160 -301 -300 -494 -688
-565 -1131 -21 -130 -24 -447 -5 -575 50 -348 192 -688 402 -967 80 -105 270
-296 374 -375 287 -217 610 -351 970 -404 134 -20 456 -17 583 4 218 37 419
101 593 188 l77 38 -1 -87 c0 -66 5 -98 20 -132 21 -47 78 -105 120 -121 34
-13 103 -11 144 3 31 11 34 10 54 -17 172 -240 321 -405 366 -405 36 0 68 28
75 66 5 28 -4 41 -98 148 -92 105 -227 281 -228 297 0 3 27 27 59 53 77 60
437 420 497 497 26 32 50 59 53 59 13 0 221 -162 299 -233 347 -315 584 -718
585 -997 1 -206 -121 -296 -349 -256 -177 30 -365 118 -570 267 -94 68 -130
75 -163 33 -41 -52 -29 -80 66 -150 297 -220 615 -338 827 -307 185 26 304
139 337 318 21 113 -9 289 -78 455 -126 306 -412 659 -716 885 -180 134 -163
116 -149 162 26 86 3 166 -62 220 -49 40 -104 55 -197 55 l-77 -1 48 102 c395
831 183 1829 -515 2425 -316 270 -717 440 -1134 482 -96 9 -278 11 -346 4z
m2124 -3185 c36 -34 16 -88 -78 -214 -68 -91 -455 -474 -549 -543 -122 -90
-193 -102 -208 -34 -3 15 -7 32 -9 39 -7 23 25 143 53 199 24 47 49 74 122
134 99 81 219 202 296 301 69 87 171 136 290 138 48 1 65 -3 83 -20z"/>
<path d="M1980 4643 c-399 -17 -764 -176 -1045 -458 -300 -300 -457 -680 -457
-1105 0 -263 55 -495 172 -717 156 -298 374 -516 673 -674 221 -116 453 -171
717 -171 423 0 803 156 1100 451 246 245 398 546 450 891 25 169 10 435 -35
610 -180 707 -847 1203 -1575 1173z m275 -168 c563 -91 1007 -492 1150 -1038
39 -148 48 -244 42 -416 -6 -165 -24 -266 -72 -407 -31 -89 -123 -274 -160
-319 l-24 -30 -1 323 0 323 -25 24 -24 25 -231 0 -230 0 0 519 0 520 -26 20
c-26 21 -35 21 -609 21 -574 0 -583 0 -609 -21 l-26 -20 0 -315 0 -314 -235 0
-236 0 -24 -25 -25 -24 0 -533 0 -533 -31 45 c-40 60 -113 204 -145 287 -90
238 -110 572 -48 828 20 80 67 212 100 277 212 424 590 705 1054 783 104 18
327 18 435 0z m275 -1655 l0 -1069 -67 -20 c-38 -11 -99 -27 -138 -36 -82 -19
-343 -31 -439 -21 l-66 8 0 803 c0 532 -4 813 -10 831 -18 47 -37 53 -147 54
l-103 0 0 260 0 260 485 0 485 0 0 -1070z m-870 -350 c0 -462 -4 -750 -9 -750
-25 0 -167 58 -262 107 -107 55 -219 133 -303 211 l-46 42 0 570 0 570 310 0
310 0 0 -750z m1380 -24 l0 -364 -60 -55 c-69 -65 -160 -131 -242 -177 l-58
-32 0 489 c0 269 3 493 7 496 3 4 84 7 180 7 l173 0 0 -364z"/>
<path d="M1927 3606 c-27 -20 -37 -70 -37 -177 0 -141 18 -179 88 -179 53 0
67 28 70 152 2 61 1 125 -3 144 -11 62 -73 94 -118 60z"/>
<path d="M2225 3595 c-24 -23 -25 -29 -25 -163 0 -125 2 -140 20 -160 28 -30
80 -29 108 1 20 22 22 33 22 161 0 132 -1 138 -25 161 -13 14 -36 25 -50 25
-14 0 -37 -11 -50 -25z"/>
<path d="M1927 3118 c-9 -7 -21 -26 -27 -41 -13 -37 -13 -228 0 -263 31 -81
129 -68 145 19 4 19 5 85 3 147 -3 103 -5 113 -27 131 -27 22 -70 25 -94 7z"/>
<path d="M2222 3107 c-20 -22 -22 -33 -22 -161 0 -132 1 -138 25 -161 13 -14
36 -25 50 -25 14 0 37 11 50 25 24 23 25 29 25 158 0 121 -2 137 -21 161 -27
34 -77 36 -107 3z"/>
<path d="M1945 2640 c-45 -18 -50 -36 -50 -181 0 -125 2 -140 20 -158 34 -33
68 -36 101 -8 l29 25 0 141 c0 127 -2 142 -20 160 -25 24 -54 32 -80 21z"/>
<path d="M2244 2635 c-17 -7 -34 -20 -38 -30 -3 -9 -6 -77 -6 -150 0 -156 10
-179 75 -179 66 0 75 23 75 183 -1 145 -5 162 -51 180 -17 6 -35 5 -55 -4z"/>
<path d="M1919 2134 c-22 -24 -24 -34 -27 -147 -3 -102 0 -128 15 -157 16 -30
24 -35 59 -38 66 -5 78 17 82 150 2 61 1 125 -3 144 -13 71 -80 96 -126 48z"/>
<path d="M2225 2135 c-24 -23 -25 -29 -25 -163 0 -125 2 -140 20 -160 14 -14
33 -22 55 -22 22 0 41 8 55 22 18 20 20 35 20 160 0 134 -1 140 -25 163 -13
14 -36 25 -50 25 -14 0 -37 -11 -50 -25z"/>
<path d="M1190 3100 c-18 -18 -20 -33 -20 -165 0 -135 1 -145 22 -165 42 -39
109 -16 124 44 3 13 4 79 2 146 -3 114 -5 123 -27 141 -30 25 -76 24 -101 -1z"/>
<path d="M1412 3097 c-20 -22 -22 -33 -22 -163 0 -134 1 -142 23 -162 31 -29
72 -28 102 3 24 23 25 29 25 158 0 121 -2 137 -21 161 -27 34 -77 36 -107 3z"/>
<path d="M1190 2510 c-18 -18 -20 -33 -20 -164 0 -144 0 -145 26 -165 31 -24
43 -26 79 -9 37 17 47 65 43 200 -2 97 -6 119 -22 137 -25 27 -79 28 -106 1z"/>
<path d="M1410 2508 c-18 -20 -20 -35 -20 -160 0 -134 1 -140 25 -163 13 -14
36 -25 50 -25 14 0 37 11 50 25 24 23 25 29 25 163 0 125 -2 140 -20 160 -14
14 -33 22 -55 22 -22 0 -41 -8 -55 -22z"/>
</g>
</svg>
